<?xml version="1.0" encoding="UTF-8" standalone="no" ?>
<!DOCTYPE svg PUBLIC "-//W3C//DTD SVG 1.1//EN" "http://www.w3.org/Graphics/SVG/1.1/DTD/svg11.dtd">
<svg xmlns="http://www.w3.org/2000/svg" xmlns:xlink="http://www.w3.org/1999/xlink" version="1.1" width="640" height="640" viewBox="0 0 640 640" xml:space="preserve">
<desc>Created with Fabric.js 5.3.0</desc>
<defs>
</defs>
<g transform="matrix(2.4293501284 0 0 2.4293501284 296.0143568742 350.6119578033)" id="OTS_FIWto2hqjtmIS7avN"  >
<path style="stroke: none; stroke-width: 1; stroke-dasharray: none; stroke-linecap: butt; stroke-dashoffset: 0; stroke-linejoin: miter; stroke-miterlimit: 4; fill: rgb(252,134,29); fill-rule: nonzero; opacity: 1;"  transform=" translate(-39.9998891078, -40.000375)" d="M 40.826 0.326 L 79.199 36.161 C 80.002 36.911 79.471 38.256 78.373 38.256 L 73.129 38.256 C 72.46000000000001 38.256 71.918 38.798 71.918 39.467 L 71.918 78.78999999999999 C 71.918 79.45899999999999 71.376 80.00099999999999 70.70700000000001 80.00099999999999 L 55.755 80.00099999999999 C 55.086000000000006 80.00099999999999 54.544000000000004 79.45899999999999 54.544000000000004 78.78999999999999 L 54.544000000000004 49.552 C 54.544000000000004 46.261 51.876000000000005 43.593 48.58500000000001 43.593 L 31.414 43.593 C 28.123 43.593 25.455000000000002 46.261 25.455000000000002 49.55200000000001 L 25.455000000000002 78.789 C 25.455000000000002 79.458 24.913 80 24.244000000000003 80 L 9.293 80 C 8.623999999999999 80 8.081999999999999 79.458 8.081999999999999 78.789 L 8.081999999999999 39.467 C 8.081999999999999 38.798 7.539999999999999 38.256 6.870999999999999 38.256 L 1.627 38.256 C 0.528 38.256 -0.0020000000000000018 36.911 0.801 36.161 L 39.174 0.326 C 39.639 -0.109 40.361 -0.109 40.826 0.326 z" stroke-linecap="round" />
</g>
<g transform="matrix(1.0281766941 0 0 1.3134744542 294.9707756102 399.25915981)" id="bgT10dkpAYmtgKmmviK-s"  >
<path style="stroke: rgb(90,180,67); stroke-width: 0; stroke-dasharray: none; stroke-linecap: butt; stroke-dashoffset: 0; stroke-linejoin: miter; stroke-miterlimit: 4; fill: rgb(252,134,29); fill-rule: nonzero; opacity: 1;"  transform=" translate(0.000005, 0.000005)" d="M -37.03704 -37.03704 L 37.03703000000001 -37.03704 L 37.03703000000001 37.03703000000001 L -37.03704 37.03703000000001 z" stroke-linecap="round" />
</g>
<g transform="matrix(0.1976158344 -0.0277730943 0.0563277594 0.4007928337 266.2954776951 367.2841418528)" id="ta9bNrLUDyh2XyB0BOI2O"  >
<path style="stroke: rgb(28,241,54); stroke-width: 0; stroke-dasharray: none; stroke-linecap: butt; stroke-dashoffset: 0; stroke-linejoin: miter; stroke-miterlimit: 4; fill: rgb(255,255,255); fill-rule: nonzero; opacity: 1;"  transform=" translate(0, 0)" d="M 0 -37.03704 C 20.44444 -37.03704 37.03704 -20.444449999999996 37.03704 0 C 37.03704 20.44444 20.444449999999996 37.03704 0 37.03704 C -20.44444 37.03704 -37.03704 20.444449999999996 -37.03704 0 C -37.03704 -20.44444 -20.444449999999996 -37.03704 0 -37.03704 z" stroke-linecap="round" />
</g>
<g transform="matrix(0.0112923763 0.6469398076 -1.1625547733 0.0202924691 293.7070720836 415.7770800953)" id="t6U62kMsRmdyqqRrmE5_a"  >
<path style="stroke: rgb(118,141,96); stroke-width: 0; stroke-dasharray: none; stroke-linecap: butt; stroke-dashoffset: 0; stroke-linejoin: miter; stroke-miterlimit: 4; fill: rgb(255,255,255); fill-rule: nonzero; opacity: 1;"  transform=" translate(0, 0)" d="M 0 -18.14815 C 10.01778 -18.14815 18.14815 -10.017780000000002 18.14815 0 C 18.14815 10.01778 10.017780000000002 18.14815 0 18.14815 C -10.01778 18.14815 -18.14815 10.017780000000002 -18.14815 0 C -18.14815 -10.01778 -10.017780000000002 -18.14815 0 -18.14815 z" stroke-linecap="round" />
</g>
<g transform="matrix(0.0824847401 0 0 0.3907787619 292.9593664988 434.528868871)" id="0Y6MVTZiLUJjK5cMDkiad"  >
<path style="stroke: rgb(145,155,253); stroke-width: 0; stroke-dasharray: none; stroke-linecap: butt; stroke-dashoffset: 0; stroke-linejoin: miter; stroke-miterlimit: 4; fill: rgb(255,255,255); fill-rule: nonzero; opacity: 1;"  transform=" translate(0, 0)" d="M -37.03704 -37.03704 L 37.03703000000001 -37.03704 L 37.03703000000001 37.03703000000001 L -37.03704 37.03703000000001 z" stroke-linecap="round" />
</g>
<g transform="matrix(1.4387502261 0.2278756493 -0.3611873234 2.2804470104 322.3690814535 358.8336748919)" id="0qMVykoF57fOF8wkzBUxf"  >
<path style="stroke: rgb(118,141,96); stroke-width: 0; stroke-dasharray: none; stroke-linecap: butt; stroke-dashoffset: 0; stroke-linejoin: miter; stroke-miterlimit: 4; fill: rgb(255,255,255); fill-rule: nonzero; opacity: 1;"  transform=" translate(0, 0)" d="M 0 -18.14815 C 10.01778 -18.14815 18.14815 -10.017780000000002 18.14815 0 C 18.14815 10.01778 10.017780000000002 18.14815 0 18.14815 C -10.01778 18.14815 -18.14815 10.017780000000002 -18.14815 0 C -18.14815 -10.01778 -10.017780000000002 -18.14815 0 -18.14815 z" stroke-linecap="round" />
</g>
<g transform="matrix(0.1990718053 0.0139204567 -0.028232653 0.4037457484 320.7752540743 366.8804496487)" id="Ya2tRvj3OaVzsxsfyrj27"  >
<path style="stroke: rgb(28,241,54); stroke-width: 0; stroke-dasharray: none; stroke-linecap: butt; stroke-dashoffset: 0; stroke-linejoin: miter; stroke-miterlimit: 4; fill: rgb(252,134,29); fill-rule: nonzero; opacity: 1;"  transform=" translate(0, 0)" d="M 0 -37.03704 C 20.44444 -37.03704 37.03704 -20.444449999999996 37.03704 0 C 37.03704 20.44444 20.444449999999996 37.03704 0 37.03704 C -20.44444 37.03704 -37.03704 20.444449999999996 -37.03704 0 C -37.03704 -20.44444 -20.444449999999996 -37.03704 0 -37.03704 z" stroke-linecap="round" />
</g>
</svg>